<?xml version="1.0" standalone="no"?>
<!DOCTYPE svg PUBLIC "-//W3C//DTD SVG 20010904//EN"
 "http://www.w3.org/TR/2001/REC-SVG-20010904/DTD/svg10.dtd">
<svg version="1.0" xmlns="http://www.w3.org/2000/svg"
 width="600.000000pt" height="600.000000pt" viewBox="0 0 600.000000 600.000000"
 preserveAspectRatio="xMidYMid meet">
<metadata>
Created by potrace 1.11, written by Peter Selinger 2001-2013
</metadata>
<g transform="translate(0.000000,600.000000) scale(0.100000,-0.100000)"
fill="#000000" stroke="none">
<path d="M2650 5974 c-333 -41 -649 -132 -950 -275 -128 -61 -349 -188 -350
-201 0 -4 6 -5 13 -3 6 2 81 9 165 15 423 31 861 -69 1242 -285 47 -26 173
-105 280 -175 107 -70 212 -135 234 -144 87 -36 152 -10 257 100 107 114 167
282 155 441 -11 152 -92 335 -204 462 l-47 53 -115 13 c-148 18 -528 17 -680
-1z"/>
<path d="M3570 5933 c0 -4 18 -34 39 -67 59 -90 128 -243 152 -332 25 -98 27
-236 4 -324 -33 -128 -134 -289 -262 -421 -31 -32 -54 -61 -52 -67 2 -5 85
-85 184 -177 99 -92 200 -187 225 -211 l45 -43 115 90 c547 433 752 575 998
694 45 21 82 45 82 51 0 7 -39 48 -87 92 -375 341 -827 579 -1326 696 -123 29
-117 28 -117 19z"/>
<path d="M1385 5453 c-118 -16 -155 -32 -249 -107 -455 -362 -798 -848 -980
-1388 -69 -205 -90 -295 -142 -615 -7 -45 12 -42 27 5 69 215 314 419 680 566
271 110 579 191 1244 331 629 133 846 193 1017 282 180 95 249 214 180 309
-185 253 -847 549 -1372 614 -81 10 -341 12 -405 3z"/>
<path d="M4984 4922 c-316 -211 -620 -436 -857 -635 -106 -89 -117 -101 -104
-116 8 -9 96 -119 196 -246 100 -126 186 -231 191 -233 4 -2 62 21 127 51 554
254 959 200 1285 -171 27 -31 73 -92 101 -135 28 -42 52 -75 55 -73 7 8 -29
208 -64 346 -99 397 -258 737 -500 1067 -65 88 -223 273 -233 272 -3 0 -92
-57 -197 -127z"/>
<path d="M3346 4631 c-11 -17 -150 -117 -221 -159 -163 -96 -440 -197 -745
-272 -91 -22 -340 -76 -555 -120 -657 -134 -939 -213 -1194 -336 -168 -81
-278 -153 -387 -257 -94 -89 -154 -162 -208 -255 l-36 -60 0 -190 c0 -209 10
-338 41 -512 71 -406 223 -790 447 -1130 102 -156 207 -290 225 -289 6 0 71
73 142 162 770 955 1689 1906 2650 2741 132 115 251 220 265 233 l25 23 -215
215 c-118 118 -218 215 -222 215 -4 0 -9 -4 -12 -9z"/>
<path d="M3815 4012 c-713 -546 -1360 -1155 -2116 -1992 -343 -380 -909 -1043
-909 -1065 0 -7 49 -59 108 -117 428 -414 938 -683 1512 -798 80 -16 181 -32
225 -36 72 -6 86 -4 125 16 185 94 334 258 459 507 130 258 212 551 361 1288
176 870 290 1218 494 1515 50 73 159 191 224 243 l33 27 -197 242 c-108 134
-201 244 -208 245 -6 1 -56 -33 -111 -75z"/>
<path d="M4927 3800 c-136 -22 -245 -71 -317 -143 -36 -36 -50 -58 -50 -78 0
-39 56 -142 197 -364 256 -404 366 -616 473 -916 141 -396 167 -798 75 -1154
-14 -54 -24 -100 -21 -102 9 -9 120 134 215 277 233 351 389 740 460 1150 32
179 41 304 41 536 l0 215 -29 57 c-120 238 -368 425 -658 497 -111 28 -293 39
-386 25z"/>
<path d="M4310 3424 c-166 -77 -280 -259 -394 -634 -52 -172 -79 -283 -172
-724 -146 -697 -196 -900 -285 -1176 -122 -377 -255 -619 -438 -799 l-96 -94
180 6 c267 9 480 42 727 113 462 132 888 376 1231 704 110 104 159 208 193
411 22 135 15 411 -16 584 -94 536 -377 1166 -679 1513 -99 114 -161 138 -251
96z"/>
</g>
</svg>
